<?xml version="1.0" encoding="utf-8" ?>
<svg baseProfile="full" height="1250px" version="1.1" width="950px" xmlns="http://www.w3.org/2000/svg" xmlns:ev="http://www.w3.org/2001/xml-events" xmlns:xlink="http://www.w3.org/1999/xlink"><defs /><path d="M 140 100 A 30.0 30.0 180 1,1 200.0 100.0 h 1 A 30.0 30.0 180 1,0 139 100 z" stroke="black" stroke-width="1" /><path d="M 240 100 A 30.0 30.0 180 1,1 300.0 100.0 h 1 A 30.0 30.0 180 1,0 239 100 z" stroke="black" stroke-width="1" /><path d="M 340 100 A 30.0 30.0 180 1,1 400.0 100.0 h 1 A 30.0 30.0 180 1,0 339 100 z" stroke="black" stroke-width="1" /><path d="M 440 100 A 30.0 30.0 180 1,1 500.0 100.0 h 1 A 30.0 30.0 180 1,0 439 100 z" stroke="black" stroke-width="1" /><path d="M 540 100 A 30.0 30.0 180 1,1 600.0 100.0 h 1 A 30.0 30.0 180 1,0 539 100 z" stroke="black" stroke-width="1" /><path d="M 640 100 A 30.0 30.0 180 1,1 700.0 100.0 h 1 A 30.0 30.0 180 1,0 639 100 z" stroke="black" stroke-width="1" /><path d="M 740 100 A 30.0 30.0 180 1,1 800.0 100.0 h 1 A 30.0 30.0 180 1,0 739 100 z" stroke="black" stroke-width="1" /><path d="M 200 100 c 0 50 100 50.0 100 100 v 1 h 40 v -1 c 0 -50 -100 -50.0 -100 -100 z" style="fill:#ff7f0e" /><path d="M 200 100 c 0 50 100 50.0 100 100 v 1 h 1 v -1 c 0 -50 -100 -50.0 -100 -100 z" stroke="black" stroke-width="1" style="fill:#ff7f0e" /><path d="M 240 100 c 0 50 100 50.0 100 100 v 1 h -1 v -1 c 0 -50 -100 -50.0 -100 -100 z" stroke="black" stroke-width="1" style="fill:#ff7f0e" /><path d="M 300 100 c 0 50 -100 50.0 -100 100 v 1 h 40 v -1 c 0 -50 100 -50.0 100 -100 z" style="fill:#2ca02c" /><path d="M 300 100 c 0 50 -100 50.0 -100 100 v 1 h 1 v -1 c 0 -50 100 -50.0 100 -100 z" stroke="black" stroke-width="1" style="fill:#2ca02c" /><path d="M 340 100 c 0 50 -100 50.0 -100 100 v 1 h -1 v -1 c 0 -50 100 -50.0 100 -100 z" stroke="black" stroke-width="1" style="fill:#2ca02c" /><path d="M 400 100 c 0 50 100 50.0 100 100 v 1 h 40 v -1 c 0 -50 -100 -50.0 -100 -100 z" style="fill:#d62728" /><path d="M 400 100 c 0 50 100 50.0 100 100 v 1 h 1 v -1 c 0 -50 -100 -50.0 -100 -100 z" stroke="black" stroke-width="1" style="fill:#d62728" /><path d="M 440 100 c 0 50 100 50.0 100 100 v 1 h -1 v -1 c 0 -50 -100 -50.0 -100 -100 z" stroke="black" stroke-width="1" style="fill:#d62728" /><path d="M 500 100 c 0 50 -100 50.0 -100 100 v 1 h 40 v -1 c 0 -50 100 -50.0 100 -100 z" style="fill:#9467bd" /><path d="M 500 100 c 0 50 -100 50.0 -100 100 v 1 h 1 v -1 c 0 -50 100 -50.0 100 -100 z" stroke="black" stroke-width="1" style="fill:#9467bd" /><path d="M 540 100 c 0 50 -100 50.0 -100 100 v 1 h -1 v -1 c 0 -50 100 -50.0 100 -100 z" stroke="black" stroke-width="1" style="fill:#9467bd" /><path d="M 600 100 c 0 50 100 50.0 100 100 v 1 h 40 v -1 c 0 -50 -100 -50.0 -100 -100 z" style="fill:#8c564b" /><path d="M 600 100 c 0 50 100 50.0 100 100 v 1 h 1 v -1 c 0 -50 -100 -50.0 -100 -100 z" stroke="black" stroke-width="1" style="fill:#8c564b" /><path d="M 640 100 c 0 50 100 50.0 100 100 v 1 h -1 v -1 c 0 -50 -100 -50.0 -100 -100 z" stroke="black" stroke-width="1" style="fill:#8c564b" /><path d="M 700 100 c 0 50 -100 50.0 -100 100 v 1 h 40 v -1 c 0 -50 100 -50.0 100 -100 z" style="fill:#e377c2" /><path d="M 700 100 c 0 50 -100 50.0 -100 100 v 1 h 1 v -1 c 0 -50 100 -50.0 100 -100 z" stroke="black" stroke-width="1" style="fill:#e377c2" /><path d="M 740 100 c 0 50 -100 50.0 -100 100 v 1 h -1 v -1 c 0 -50 100 -50.0 100 -100 z" stroke="black" stroke-width="1" style="fill:#e377c2" /><path d="M 100 100 v 101 h 40 v -101 z" style="fill:#1f77b4" /><path d="M 100 100 v 101 h 1 v -101 z" stroke="black" stroke-width="1" style="fill:#1f77b4" /><path d="M 140 100 v 101 h -1 v -101 z" stroke="black" stroke-width="1" style="fill:#1f77b4" /><path d="M 800 100 v 101 h 40 v -101 z" style="fill:#7f7f7f" /><path d="M 800 100 v 101 h 1 v -101 z" stroke="black" stroke-width="1" style="fill:#7f7f7f" /><path d="M 840 100 v 101 h -1 v -101 z" stroke="black" stroke-width="1" style="fill:#7f7f7f" /><path d="M 300 200 c 0 50 100 50.0 100 100 v 1 h 40 v -1 c 0 -50 -100 -50.0 -100 -100 z" style="fill:#ff7f0e" /><path d="M 300 200 c 0 50 100 50.0 100 100 v 1 h 1 v -1 c 0 -50 -100 -50.0 -100 -100 z" stroke="black" stroke-width="1" style="fill:#ff7f0e" /><path d="M 340 200 c 0 50 100 50.0 100 100 v 1 h -1 v -1 c 0 -50 -100 -50.0 -100 -100 z" stroke="black" stroke-width="1" style="fill:#ff7f0e" /><path d="M 400 200 c 0 50 -100 50.0 -100 100 v 1 h 40 v -1 c 0 -50 100 -50.0 100 -100 z" style="fill:#9467bd" /><path d="M 400 200 c 0 50 -100 50.0 -100 100 v 1 h 1 v -1 c 0 -50 100 -50.0 100 -100 z" stroke="black" stroke-width="1" style="fill:#9467bd" /><path d="M 440 200 c 0 50 -100 50.0 -100 100 v 1 h -1 v -1 c 0 -50 100 -50.0 100 -100 z" stroke="black" stroke-width="1" style="fill:#9467bd" /><path d="M 500 200 c 0 50 100 50.0 100 100 v 1 h 40 v -1 c 0 -50 -100 -50.0 -100 -100 z" style="fill:#d62728" /><path d="M 500 200 c 0 50 100 50.0 100 100 v 1 h 1 v -1 c 0 -50 -100 -50.0 -100 -100 z" stroke="black" stroke-width="1" style="fill:#d62728" /><path d="M 540 200 c 0 50 100 50.0 100 100 v 1 h -1 v -1 c 0 -50 -100 -50.0 -100 -100 z" stroke="black" stroke-width="1" style="fill:#d62728" /><path d="M 600 200 c 0 50 -100 50.0 -100 100 v 1 h 40 v -1 c 0 -50 100 -50.0 100 -100 z" style="fill:#e377c2" /><path d="M 600 200 c 0 50 -100 50.0 -100 100 v 1 h 1 v -1 c 0 -50 100 -50.0 100 -100 z" stroke="black" stroke-width="1" style="fill:#e377c2" /><path d="M 640 200 c 0 50 -100 50.0 -100 100 v 1 h -1 v -1 c 0 -50 100 -50.0 100 -100 z" stroke="black" stroke-width="1" style="fill:#e377c2" /><path d="M 100 200 v 101 h 40 v -101 z" style="fill:#1f77b4" /><path d="M 100 200 v 101 h 1 v -101 z" stroke="black" stroke-width="1" style="fill:#1f77b4" /><path d="M 140 200 v 101 h -1 v -101 z" stroke="black" stroke-width="1" style="fill:#1f77b4" /><path d="M 200 200 v 101 h 40 v -101 z" style="fill:#2ca02c" /><path d="M 200 200 v 101 h 1 v -101 z" stroke="black" stroke-width="1" style="fill:#2ca02c" /><path d="M 240 200 v 101 h -1 v -101 z" stroke="black" stroke-width="1" style="fill:#2ca02c" /><path d="M 700 200 v 101 h 40 v -101 z" style="fill:#8c564b" /><path d="M 700 200 v 101 h 1 v -101 z" stroke="black" stroke-width="1" style="fill:#8c564b" /><path d="M 740 200 v 101 h -1 v -101 z" stroke="black" stroke-width="1" style="fill:#8c564b" /><path d="M 800 200 v 101 h 40 v -101 z" style="fill:#7f7f7f" /><path d="M 800 200 v 101 h 1 v -101 z" stroke="black" stroke-width="1" style="fill:#7f7f7f" /><path d="M 840 200 v 101 h -1 v -101 z" stroke="black" stroke-width="1" style="fill:#7f7f7f" /><path d="M 400 300 c 0 50 100 50.0 100 100 v 1 h 40 v -1 c 0 -50 -100 -50.0 -100 -100 z" style="fill:#ff7f0e" /><path d="M 400 300 c 0 50 100 50.0 100 100 v 1 h 1 v -1 c 0 -50 -100 -50.0 -100 -100 z" stroke="black" stroke-width="1" style="fill:#ff7f0e" /><path d="M 440 300 c 0 50 100 50.0 100 100 v 1 h -1 v -1 c 0 -50 -100 -50.0 -100 -100 z" stroke="black" stroke-width="1" style="fill:#ff7f0e" /><path d="M 500 300 c 0 50 -100 50.0 -100 100 v 1 h 40 v -1 c 0 -50 100 -50.0 100 -100 z" style="fill:#e377c2" /><path d="M 500 300 c 0 50 -100 50.0 -100 100 v 1 h 1 v -1 c 0 -50 100 -50.0 100 -100 z" stroke="black" stroke-width="1" style="fill:#e377c2" /><path d="M 540 300 c 0 50 -100 50.0 -100 100 v 1 h -1 v -1 c 0 -50 100 -50.0 100 -100 z" stroke="black" stroke-width="1" style="fill:#e377c2" /><path d="M 200 300 c 0 50 100 50.0 100 100 v 1 h 40 v -1 c 0 -50 -100 -50.0 -100 -100 z" style="fill:#2ca02c" /><path d="M 200 300 c 0 50 100 50.0 100 100 v 1 h 1 v -1 c 0 -50 -100 -50.0 -100 -100 z" stroke="black" stroke-width="1" style="fill:#2ca02c" /><path d="M 240 300 c 0 50 100 50.0 100 100 v 1 h -1 v -1 c 0 -50 -100 -50.0 -100 -100 z" stroke="black" stroke-width="1" style="fill:#2ca02c" /><path d="M 300 300 c 0 50 -100 50.0 -100 100 v 1 h 40 v -1 c 0 -50 100 -50.0 100 -100 z" style="fill:#9467bd" /><path d="M 300 300 c 0 50 -100 50.0 -100 100 v 1 h 1 v -1 c 0 -50 100 -50.0 100 -100 z" stroke="black" stroke-width="1" style="fill:#9467bd" /><path d="M 340 300 c 0 50 -100 50.0 -100 100 v 1 h -1 v -1 c 0 -50 100 -50.0 100 -100 z" stroke="black" stroke-width="1" style="fill:#9467bd" /><path d="M 600 300 c 0 50 100 50.0 100 100 v 1 h 40 v -1 c 0 -50 -100 -50.0 -100 -100 z" style="fill:#d62728" /><path d="M 600 300 c 0 50 100 50.0 100 100 v 1 h 1 v -1 c 0 -50 -100 -50.0 -100 -100 z" stroke="black" stroke-width="1" style="fill:#d62728" /><path d="M 640 300 c 0 50 100 50.0 100 100 v 1 h -1 v -1 c 0 -50 -100 -50.0 -100 -100 z" stroke="black" stroke-width="1" style="fill:#d62728" /><path d="M 700 300 c 0 50 -100 50.0 -100 100 v 1 h 40 v -1 c 0 -50 100 -50.0 100 -100 z" style="fill:#8c564b" /><path d="M 700 300 c 0 50 -100 50.0 -100 100 v 1 h 1 v -1 c 0 -50 100 -50.0 100 -100 z" stroke="black" stroke-width="1" style="fill:#8c564b" /><path d="M 740 300 c 0 50 -100 50.0 -100 100 v 1 h -1 v -1 c 0 -50 100 -50.0 100 -100 z" stroke="black" stroke-width="1" style="fill:#8c564b" /><path d="M 100 300 v 101 h 40 v -101 z" style="fill:#1f77b4" /><path d="M 100 300 v 101 h 1 v -101 z" stroke="black" stroke-width="1" style="fill:#1f77b4" /><path d="M 140 300 v 101 h -1 v -101 z" stroke="black" stroke-width="1" style="fill:#1f77b4" /><path d="M 800 300 v 101 h 40 v -101 z" style="fill:#7f7f7f" /><path d="M 800 300 v 101 h 1 v -101 z" stroke="black" stroke-width="1" style="fill:#7f7f7f" /><path d="M 840 300 v 101 h -1 v -101 z" stroke="black" stroke-width="1" style="fill:#7f7f7f" /><path d="M 400 400 c 0 50 100 50.0 100 100 v 1 h 40 v -1 c 0 -50 -100 -50.0 -100 -100 z" style="fill:#e377c2" /><path d="M 400 400 c 0 50 100 50.0 100 100 v 1 h 1 v -1 c 0 -50 -100 -50.0 -100 -100 z" stroke="black" stroke-width="1" style="fill:#e377c2" /><path d="M 440 400 c 0 50 100 50.0 100 100 v 1 h -1 v -1 c 0 -50 -100 -50.0 -100 -100 z" stroke="black" stroke-width="1" style="fill:#e377c2" /><path d="M 500 400 c 0 50 -100 50.0 -100 100 v 1 h 40 v -1 c 0 -50 100 -50.0 100 -100 z" style="fill:#ff7f0e" /><path d="M 500 400 c 0 50 -100 50.0 -100 100 v 1 h 1 v -1 c 0 -50 100 -50.0 100 -100 z" stroke="black" stroke-width="1" style="fill:#ff7f0e" /><path d="M 540 400 c 0 50 -100 50.0 -100 100 v 1 h -1 v -1 c 0 -50 100 -50.0 100 -100 z" stroke="black" stroke-width="1" style="fill:#ff7f0e" /><path d="M 100 400 v 101 h 40 v -101 z" style="fill:#1f77b4" /><path d="M 100 400 v 101 h 1 v -101 z" stroke="black" stroke-width="1" style="fill:#1f77b4" /><path d="M 140 400 v 101 h -1 v -101 z" stroke="black" stroke-width="1" style="fill:#1f77b4" /><path d="M 300 400 v 101 h 40 v -101 z" style="fill:#2ca02c" /><path d="M 300 400 v 101 h 1 v -101 z" stroke="black" stroke-width="1" style="fill:#2ca02c" /><path d="M 340 400 v 101 h -1 v -101 z" stroke="black" stroke-width="1" style="fill:#2ca02c" /><path d="M 700 400 v 101 h 40 v -101 z" style="fill:#d62728" /><path d="M 700 400 v 101 h 1 v -101 z" stroke="black" stroke-width="1" style="fill:#d62728" /><path d="M 740 400 v 101 h -1 v -101 z" stroke="black" stroke-width="1" style="fill:#d62728" /><path d="M 200 400 v 101 h 40 v -101 z" style="fill:#9467bd" /><path d="M 200 400 v 101 h 1 v -101 z" stroke="black" stroke-width="1" style="fill:#9467bd" /><path d="M 240 400 v 101 h -1 v -101 z" stroke="black" stroke-width="1" style="fill:#9467bd" /><path d="M 600 400 v 101 h 40 v -101 z" style="fill:#8c564b" /><path d="M 600 400 v 101 h 1 v -101 z" stroke="black" stroke-width="1" style="fill:#8c564b" /><path d="M 640 400 v 101 h -1 v -101 z" stroke="black" stroke-width="1" style="fill:#8c564b" /><path d="M 800 400 v 101 h 40 v -101 z" style="fill:#7f7f7f" /><path d="M 800 400 v 101 h 1 v -101 z" stroke="black" stroke-width="1" style="fill:#7f7f7f" /><path d="M 840 400 v 101 h -1 v -101 z" stroke="black" stroke-width="1" style="fill:#7f7f7f" /><path d="M 300 500 c 0 50 100 50.0 100 100 v 1 h 40 v -1 c 0 -50 -100 -50.0 -100 -100 z" style="fill:#2ca02c" /><path d="M 300 500 c 0 50 100 50.0 100 100 v 1 h 1 v -1 c 0 -50 -100 -50.0 -100 -100 z" stroke="black" stroke-width="1" style="fill:#2ca02c" /><path d="M 340 500 c 0 50 100 50.0 100 100 v 1 h -1 v -1 c 0 -50 -100 -50.0 -100 -100 z" stroke="black" stroke-width="1" style="fill:#2ca02c" /><path d="M 400 500 c 0 50 -100 50.0 -100 100 v 1 h 40 v -1 c 0 -50 100 -50.0 100 -100 z" style="fill:#ff7f0e" /><path d="M 400 500 c 0 50 -100 50.0 -100 100 v 1 h 1 v -1 c 0 -50 100 -50.0 100 -100 z" stroke="black" stroke-width="1" style="fill:#ff7f0e" /><path d="M 440 500 c 0 50 -100 50.0 -100 100 v 1 h -1 v -1 c 0 -50 100 -50.0 100 -100 z" stroke="black" stroke-width="1" style="fill:#ff7f0e" /><path d="M 500 500 c 0 50 100 50.0 100 100 v 1 h 40 v -1 c 0 -50 -100 -50.0 -100 -100 z" style="fill:#e377c2" /><path d="M 500 500 c 0 50 100 50.0 100 100 v 1 h 1 v -1 c 0 -50 -100 -50.0 -100 -100 z" stroke="black" stroke-width="1" style="fill:#e377c2" /><path d="M 540 500 c 0 50 100 50.0 100 100 v 1 h -1 v -1 c 0 -50 -100 -50.0 -100 -100 z" stroke="black" stroke-width="1" style="fill:#e377c2" /><path d="M 600 500 c 0 50 -100 50.0 -100 100 v 1 h 40 v -1 c 0 -50 100 -50.0 100 -100 z" style="fill:#8c564b" /><path d="M 600 500 c 0 50 -100 50.0 -100 100 v 1 h 1 v -1 c 0 -50 100 -50.0 100 -100 z" stroke="black" stroke-width="1" style="fill:#8c564b" /><path d="M 640 500 c 0 50 -100 50.0 -100 100 v 1 h -1 v -1 c 0 -50 100 -50.0 100 -100 z" stroke="black" stroke-width="1" style="fill:#8c564b" /><path d="M 100 500 v 101 h 40 v -101 z" style="fill:#1f77b4" /><path d="M 100 500 v 101 h 1 v -101 z" stroke="black" stroke-width="1" style="fill:#1f77b4" /><path d="M 140 500 v 101 h -1 v -101 z" stroke="black" stroke-width="1" style="fill:#1f77b4" /><path d="M 700 500 v 101 h 40 v -101 z" style="fill:#d62728" /><path d="M 700 500 v 101 h 1 v -101 z" stroke="black" stroke-width="1" style="fill:#d62728" /><path d="M 740 500 v 101 h -1 v -101 z" stroke="black" stroke-width="1" style="fill:#d62728" /><path d="M 200 500 v 101 h 40 v -101 z" style="fill:#9467bd" /><path d="M 200 500 v 101 h 1 v -101 z" stroke="black" stroke-width="1" style="fill:#9467bd" /><path d="M 240 500 v 101 h -1 v -101 z" stroke="black" stroke-width="1" style="fill:#9467bd" /><path d="M 800 500 v 101 h 40 v -101 z" style="fill:#7f7f7f" /><path d="M 800 500 v 101 h 1 v -101 z" stroke="black" stroke-width="1" style="fill:#7f7f7f" /><path d="M 840 500 v 101 h -1 v -101 z" stroke="black" stroke-width="1" style="fill:#7f7f7f" /><path d="M 200 600 c 0 50 100 50.0 100 100 v 1 h 40 v -1 c 0 -50 -100 -50.0 -100 -100 z" style="fill:#9467bd" /><path d="M 200 600 c 0 50 100 50.0 100 100 v 1 h 1 v -1 c 0 -50 -100 -50.0 -100 -100 z" stroke="black" stroke-width="1" style="fill:#9467bd" /><path d="M 240 600 c 0 50 100 50.0 100 100 v 1 h -1 v -1 c 0 -50 -100 -50.0 -100 -100 z" stroke="black" stroke-width="1" style="fill:#9467bd" /><path d="M 300 600 c 0 50 -100 50.0 -100 100 v 1 h 40 v -1 c 0 -50 100 -50.0 100 -100 z" style="fill:#ff7f0e" /><path d="M 300 600 c 0 50 -100 50.0 -100 100 v 1 h 1 v -1 c 0 -50 100 -50.0 100 -100 z" stroke="black" stroke-width="1" style="fill:#ff7f0e" /><path d="M 340 600 c 0 50 -100 50.0 -100 100 v 1 h -1 v -1 c 0 -50 100 -50.0 100 -100 z" stroke="black" stroke-width="1" style="fill:#ff7f0e" /><path d="M 400 600 c 0 50 100 50.0 100 100 v 1 h 40 v -1 c 0 -50 -100 -50.0 -100 -100 z" style="fill:#2ca02c" /><path d="M 400 600 c 0 50 100 50.0 100 100 v 1 h 1 v -1 c 0 -50 -100 -50.0 -100 -100 z" stroke="black" stroke-width="1" style="fill:#2ca02c" /><path d="M 440 600 c 0 50 100 50.0 100 100 v 1 h -1 v -1 c 0 -50 -100 -50.0 -100 -100 z" stroke="black" stroke-width="1" style="fill:#2ca02c" /><path d="M 500 600 c 0 50 -100 50.0 -100 100 v 1 h 40 v -1 c 0 -50 100 -50.0 100 -100 z" style="fill:#8c564b" /><path d="M 500 600 c 0 50 -100 50.0 -100 100 v 1 h 1 v -1 c 0 -50 100 -50.0 100 -100 z" stroke="black" stroke-width="1" style="fill:#8c564b" /><path d="M 540 600 c 0 50 -100 50.0 -100 100 v 1 h -1 v -1 c 0 -50 100 -50.0 100 -100 z" stroke="black" stroke-width="1" style="fill:#8c564b" /><path d="M 600 600 c 0 50 100 50.0 100 100 v 1 h 40 v -1 c 0 -50 -100 -50.0 -100 -100 z" style="fill:#e377c2" /><path d="M 600 600 c 0 50 100 50.0 100 100 v 1 h 1 v -1 c 0 -50 -100 -50.0 -100 -100 z" stroke="black" stroke-width="1" style="fill:#e377c2" /><path d="M 640 600 c 0 50 100 50.0 100 100 v 1 h -1 v -1 c 0 -50 -100 -50.0 -100 -100 z" stroke="black" stroke-width="1" style="fill:#e377c2" /><path d="M 700 600 c 0 50 -100 50.0 -100 100 v 1 h 40 v -1 c 0 -50 100 -50.0 100 -100 z" style="fill:#d62728" /><path d="M 700 600 c 0 50 -100 50.0 -100 100 v 1 h 1 v -1 c 0 -50 100 -50.0 100 -100 z" stroke="black" stroke-width="1" style="fill:#d62728" /><path d="M 740 600 c 0 50 -100 50.0 -100 100 v 1 h -1 v -1 c 0 -50 100 -50.0 100 -100 z" stroke="black" stroke-width="1" style="fill:#d62728" /><path d="M 100 600 v 101 h 40 v -101 z" style="fill:#1f77b4" /><path d="M 100 600 v 101 h 1 v -101 z" stroke="black" stroke-width="1" style="fill:#1f77b4" /><path d="M 140 600 v 101 h -1 v -101 z" stroke="black" stroke-width="1" style="fill:#1f77b4" /><path d="M 800 600 v 101 h 40 v -101 z" style="fill:#7f7f7f" /><path d="M 800 600 v 101 h 1 v -101 z" stroke="black" stroke-width="1" style="fill:#7f7f7f" /><path d="M 840 600 v 101 h -1 v -101 z" stroke="black" stroke-width="1" style="fill:#7f7f7f" /><path d="M 400 700 c 0 50 100 50.0 100 100 v 1 h 40 v -1 c 0 -50 -100 -50.0 -100 -100 z" style="fill:#8c564b" /><path d="M 400 700 c 0 50 100 50.0 100 100 v 1 h 1 v -1 c 0 -50 -100 -50.0 -100 -100 z" stroke="black" stroke-width="1" style="fill:#8c564b" /><path d="M 440 700 c 0 50 100 50.0 100 100 v 1 h -1 v -1 c 0 -50 -100 -50.0 -100 -100 z" stroke="black" stroke-width="1" style="fill:#8c564b" /><path d="M 500 700 c 0 50 -100 50.0 -100 100 v 1 h 40 v -1 c 0 -50 100 -50.0 100 -100 z" style="fill:#2ca02c" /><path d="M 500 700 c 0 50 -100 50.0 -100 100 v 1 h 1 v -1 c 0 -50 100 -50.0 100 -100 z" stroke="black" stroke-width="1" style="fill:#2ca02c" /><path d="M 540 700 c 0 50 -100 50.0 -100 100 v 1 h -1 v -1 c 0 -50 100 -50.0 100 -100 z" stroke="black" stroke-width="1" style="fill:#2ca02c" /><path d="M 100 700 v 101 h 40 v -101 z" style="fill:#1f77b4" /><path d="M 100 700 v 101 h 1 v -101 z" stroke="black" stroke-width="1" style="fill:#1f77b4" /><path d="M 140 700 v 101 h -1 v -101 z" stroke="black" stroke-width="1" style="fill:#1f77b4" /><path d="M 200 700 v 101 h 40 v -101 z" style="fill:#ff7f0e" /><path d="M 200 700 v 101 h 1 v -101 z" stroke="black" stroke-width="1" style="fill:#ff7f0e" /><path d="M 240 700 v 101 h -1 v -101 z" stroke="black" stroke-width="1" style="fill:#ff7f0e" /><path d="M 600 700 v 101 h 40 v -101 z" style="fill:#d62728" /><path d="M 600 700 v 101 h 1 v -101 z" stroke="black" stroke-width="1" style="fill:#d62728" /><path d="M 640 700 v 101 h -1 v -101 z" stroke="black" stroke-width="1" style="fill:#d62728" /><path d="M 300 700 v 101 h 40 v -101 z" style="fill:#9467bd" /><path d="M 300 700 v 101 h 1 v -101 z" stroke="black" stroke-width="1" style="fill:#9467bd" /><path d="M 340 700 v 101 h -1 v -101 z" stroke="black" stroke-width="1" style="fill:#9467bd" /><path d="M 700 700 v 101 h 40 v -101 z" style="fill:#e377c2" /><path d="M 700 700 v 101 h 1 v -101 z" stroke="black" stroke-width="1" style="fill:#e377c2" /><path d="M 740 700 v 101 h -1 v -101 z" stroke="black" stroke-width="1" style="fill:#e377c2" /><path d="M 800 700 v 101 h 40 v -101 z" style="fill:#7f7f7f" /><path d="M 800 700 v 101 h 1 v -101 z" stroke="black" stroke-width="1" style="fill:#7f7f7f" /><path d="M 840 700 v 101 h -1 v -101 z" stroke="black" stroke-width="1" style="fill:#7f7f7f" /><path d="M 300 800 c 0 50 100 50.0 100 100 v 1 h 40 v -1 c 0 -50 -100 -50.0 -100 -100 z" style="fill:#9467bd" /><path d="M 300 800 c 0 50 100 50.0 100 100 v 1 h 1 v -1 c 0 -50 -100 -50.0 -100 -100 z" stroke="black" stroke-width="1" style="fill:#9467bd" /><path d="M 340 800 c 0 50 100 50.0 100 100 v 1 h -1 v -1 c 0 -50 -100 -50.0 -100 -100 z" stroke="black" stroke-width="1" style="fill:#9467bd" /><path d="M 400 800 c 0 50 -100 50.0 -100 100 v 1 h 40 v -1 c 0 -50 100 -50.0 100 -100 z" style="fill:#2ca02c" /><path d="M 400 800 c 0 50 -100 50.0 -100 100 v 1 h 1 v -1 c 0 -50 100 -50.0 100 -100 z" stroke="black" stroke-width="1" style="fill:#2ca02c" /><path d="M 440 800 c 0 50 -100 50.0 -100 100 v 1 h -1 v -1 c 0 -50 100 -50.0 100 -100 z" stroke="black" stroke-width="1" style="fill:#2ca02c" /><path d="M 500 800 c 0 50 100 50.0 100 100 v 1 h 40 v -1 c 0 -50 -100 -50.0 -100 -100 z" style="fill:#8c564b" /><path d="M 500 800 c 0 50 100 50.0 100 100 v 1 h 1 v -1 c 0 -50 -100 -50.0 -100 -100 z" stroke="black" stroke-width="1" style="fill:#8c564b" /><path d="M 540 800 c 0 50 100 50.0 100 100 v 1 h -1 v -1 c 0 -50 -100 -50.0 -100 -100 z" stroke="black" stroke-width="1" style="fill:#8c564b" /><path d="M 600 800 c 0 50 -100 50.0 -100 100 v 1 h 40 v -1 c 0 -50 100 -50.0 100 -100 z" style="fill:#d62728" /><path d="M 600 800 c 0 50 -100 50.0 -100 100 v 1 h 1 v -1 c 0 -50 100 -50.0 100 -100 z" stroke="black" stroke-width="1" style="fill:#d62728" /><path d="M 640 800 c 0 50 -100 50.0 -100 100 v 1 h -1 v -1 c 0 -50 100 -50.0 100 -100 z" stroke="black" stroke-width="1" style="fill:#d62728" /><path d="M 100 800 v 101 h 40 v -101 z" style="fill:#1f77b4" /><path d="M 100 800 v 101 h 1 v -101 z" stroke="black" stroke-width="1" style="fill:#1f77b4" /><path d="M 140 800 v 101 h -1 v -101 z" stroke="black" stroke-width="1" style="fill:#1f77b4" /><path d="M 200 800 v 101 h 40 v -101 z" style="fill:#ff7f0e" /><path d="M 200 800 v 101 h 1 v -101 z" stroke="black" stroke-width="1" style="fill:#ff7f0e" /><path d="M 240 800 v 101 h -1 v -101 z" stroke="black" stroke-width="1" style="fill:#ff7f0e" /><path d="M 700 800 v 101 h 40 v -101 z" style="fill:#e377c2" /><path d="M 700 800 v 101 h 1 v -101 z" stroke="black" stroke-width="1" style="fill:#e377c2" /><path d="M 740 800 v 101 h -1 v -101 z" stroke="black" stroke-width="1" style="fill:#e377c2" /><path d="M 800 800 v 101 h 40 v -101 z" style="fill:#7f7f7f" /><path d="M 800 800 v 101 h 1 v -101 z" stroke="black" stroke-width="1" style="fill:#7f7f7f" /><path d="M 840 800 v 101 h -1 v -101 z" stroke="black" stroke-width="1" style="fill:#7f7f7f" /><path d="M 100 900 v 101 h 40 v -101 z" style="fill:#1f77b4" /><path d="M 100 900 v 101 h 1 v -101 z" stroke="black" stroke-width="1" style="fill:#1f77b4" /><path d="M 140 900 v 101 h -1 v -101 z" stroke="black" stroke-width="1" style="fill:#1f77b4" /><path d="M 200 900 v 101 h 40 v -101 z" style="fill:#ff7f0e" /><path d="M 200 900 v 101 h 1 v -101 z" stroke="black" stroke-width="1" style="fill:#ff7f0e" /><path d="M 240 900 v 101 h -1 v -101 z" stroke="black" stroke-width="1" style="fill:#ff7f0e" /><path d="M 300 900 v 101 h 40 v -101 z" style="fill:#2ca02c" /><path d="M 300 900 v 101 h 1 v -101 z" stroke="black" stroke-width="1" style="fill:#2ca02c" /><path d="M 340 900 v 101 h -1 v -101 z" stroke="black" stroke-width="1" style="fill:#2ca02c" /><path d="M 500 900 v 101 h 40 v -101 z" style="fill:#d62728" /><path d="M 500 900 v 101 h 1 v -101 z" stroke="black" stroke-width="1" style="fill:#d62728" /><path d="M 540 900 v 101 h -1 v -101 z" stroke="black" stroke-width="1" style="fill:#d62728" /><path d="M 400 900 v 101 h 40 v -101 z" style="fill:#9467bd" /><path d="M 400 900 v 101 h 1 v -101 z" stroke="black" stroke-width="1" style="fill:#9467bd" /><path d="M 440 900 v 101 h -1 v -101 z" stroke="black" stroke-width="1" style="fill:#9467bd" /><path d="M 600 900 v 101 h 40 v -101 z" style="fill:#8c564b" /><path d="M 600 900 v 101 h 1 v -101 z" stroke="black" stroke-width="1" style="fill:#8c564b" /><path d="M 640 900 v 101 h -1 v -101 z" stroke="black" stroke-width="1" style="fill:#8c564b" /><path d="M 700 900 v 101 h 40 v -101 z" style="fill:#e377c2" /><path d="M 700 900 v 101 h 1 v -101 z" stroke="black" stroke-width="1" style="fill:#e377c2" /><path d="M 740 900 v 101 h -1 v -101 z" stroke="black" stroke-width="1" style="fill:#e377c2" /><path d="M 800 900 v 101 h 40 v -101 z" style="fill:#7f7f7f" /><path d="M 800 900 v 101 h 1 v -101 z" stroke="black" stroke-width="1" style="fill:#7f7f7f" /><path d="M 840 900 v 101 h -1 v -101 z" stroke="black" stroke-width="1" style="fill:#7f7f7f" /><path d="M 400 1000 c 0 50 100 50.0 100 100 v 1 h 40 v -1 c 0 -50 -100 -50.0 -100 -100 z" style="fill:#9467bd" /><path d="M 400 1000 c 0 50 100 50.0 100 100 v 1 h 1 v -1 c 0 -50 -100 -50.0 -100 -100 z" stroke="black" stroke-width="1" style="fill:#9467bd" /><path d="M 440 1000 c 0 50 100 50.0 100 100 v 1 h -1 v -1 c 0 -50 -100 -50.0 -100 -100 z" stroke="black" stroke-width="1" style="fill:#9467bd" /><path d="M 500 1000 c 0 50 -100 50.0 -100 100 v 1 h 40 v -1 c 0 -50 100 -50.0 100 -100 z" style="fill:#d62728" /><path d="M 500 1000 c 0 50 -100 50.0 -100 100 v 1 h 1 v -1 c 0 -50 100 -50.0 100 -100 z" stroke="black" stroke-width="1" style="fill:#d62728" /><path d="M 540 1000 c 0 50 -100 50.0 -100 100 v 1 h -1 v -1 c 0 -50 100 -50.0 100 -100 z" stroke="black" stroke-width="1" style="fill:#d62728" /><path d="M 100 1000 v 101 h 40 v -101 z" style="fill:#1f77b4" /><path d="M 100 1000 v 101 h 1 v -101 z" stroke="black" stroke-width="1" style="fill:#1f77b4" /><path d="M 140 1000 v 101 h -1 v -101 z" stroke="black" stroke-width="1" style="fill:#1f77b4" /><path d="M 200 1000 v 101 h 40 v -101 z" style="fill:#ff7f0e" /><path d="M 200 1000 v 101 h 1 v -101 z" stroke="black" stroke-width="1" style="fill:#ff7f0e" /><path d="M 240 1000 v 101 h -1 v -101 z" stroke="black" stroke-width="1" style="fill:#ff7f0e" /><path d="M 300 1000 v 101 h 40 v -101 z" style="fill:#2ca02c" /><path d="M 300 1000 v 101 h 1 v -101 z" stroke="black" stroke-width="1" style="fill:#2ca02c" /><path d="M 340 1000 v 101 h -1 v -101 z" stroke="black" stroke-width="1" style="fill:#2ca02c" /><path d="M 600 1000 v 101 h 40 v -101 z" style="fill:#8c564b" /><path d="M 600 1000 v 101 h 1 v -101 z" stroke="black" stroke-width="1" style="fill:#8c564b" /><path d="M 640 1000 v 101 h -1 v -101 z" stroke="black" stroke-width="1" style="fill:#8c564b" /><path d="M 700 1000 v 101 h 40 v -101 z" style="fill:#e377c2" /><path d="M 700 1000 v 101 h 1 v -101 z" stroke="black" stroke-width="1" style="fill:#e377c2" /><path d="M 740 1000 v 101 h -1 v -101 z" stroke="black" stroke-width="1" style="fill:#e377c2" /><path d="M 800 1000 v 101 h 40 v -101 z" style="fill:#7f7f7f" /><path d="M 800 1000 v 101 h 1 v -101 z" stroke="black" stroke-width="1" style="fill:#7f7f7f" /><path d="M 840 1000 v 101 h -1 v -101 z" stroke="black" stroke-width="1" style="fill:#7f7f7f" /><path d="M 100 1100 c 0 50 0 50.0 0 100 h 740 c 0 -50 -700 -50.0 -700 -100 z" style="fill:#1f77b4" /><path d="M 100 1100 c 0 50 0 50.0 0 100 h 740 c 0 -50 -700 -50.0 -700 -100 h -1 c 0 49 700 49.5 700 99 h -738 c 0 -50 0 -50.0 0 -100 z" stroke="black" stroke-width="1" /><path d="M 200 1100 c 0 50 -100 50.0 -100 100 h 740 c 0 -50 -600 -50.0 -600 -100 z" style="fill:#ff7f0e" /><path d="M 200 1100 c 0 50 -100 50.0 -100 100 h 740 c 0 -50 -600 -50.0 -600 -100 h -1 c 0 49 600 49.5 600 99 h -738 c 0 -50 100 -50.0 100 -100 z" stroke="black" stroke-width="1" /><path d="M 300 1100 c 0 50 -200 50.0 -200 100 h 740 c 0 -50 -500 -50.0 -500 -100 z" style="fill:#2ca02c" /><path d="M 300 1100 c 0 50 -200 50.0 -200 100 h 740 c 0 -50 -500 -50.0 -500 -100 h -1 c 0 49 500 49.5 500 99 h -738 c 0 -50 200 -50.0 200 -100 z" stroke="black" stroke-width="1" /><path d="M 400 1100 c 0 50 -300 50.0 -300 100 h 740 c 0 -50 -400 -50.0 -400 -100 z" style="fill:#d62728" /><path d="M 400 1100 c 0 50 -300 50.0 -300 100 h 740 c 0 -50 -400 -50.0 -400 -100 h -1 c 0 49 400 49.5 400 99 h -738 c 0 -50 300 -50.0 300 -100 z" stroke="black" stroke-width="1" /><path d="M 500 1100 c 0 50 -400 50.0 -400 100 h 740 c 0 -50 -300 -50.0 -300 -100 z" style="fill:#9467bd" /><path d="M 500 1100 c 0 50 -400 50.0 -400 100 h 740 c 0 -50 -300 -50.0 -300 -100 h -1 c 0 49 300 49.5 300 99 h -738 c 0 -50 400 -50.0 400 -100 z" stroke="black" stroke-width="1" /><path d="M 600 1100 c 0 50 -500 50.0 -500 100 h 740 c 0 -50 -200 -50.0 -200 -100 z" style="fill:#8c564b" /><path d="M 600 1100 c 0 50 -500 50.0 -500 100 h 740 c 0 -50 -200 -50.0 -200 -100 h -1 c 0 49 200 49.5 200 99 h -738 c 0 -50 500 -50.0 500 -100 z" stroke="black" stroke-width="1" /><path d="M 700 1100 c 0 50 -600 50.0 -600 100 h 740 c 0 -50 -100 -50.0 -100 -100 z" style="fill:#e377c2" /><path d="M 700 1100 c 0 50 -600 50.0 -600 100 h 740 c 0 -50 -100 -50.0 -100 -100 h -1 c 0 49 100 49.5 100 99 h -738 c 0 -50 600 -50.0 600 -100 z" stroke="black" stroke-width="1" /><path d="M 800 1100 c 0 50 -700 50.0 -700 100 h 740 c 0 -50 0 -50.0 0 -100 z" style="fill:#7f7f7f" /><path d="M 800 1100 c 0 50 -700 50.0 -700 100 h 740 c 0 -50 0 -50.0 0 -100 h -1 c 0 49 0 49.5 0 99 h -738 c 0 -50 700 -50.0 700 -100 z" stroke="black" stroke-width="1" /><path d="M 100 100 v -60 h 740 v 60 h -1 v -59 h -738 v 59 z" stroke="black" stroke-width="1" /></svg>